<svg width="158" height="30" viewBox="0 0 158 30" fill="none" xmlns="http://www.w3.org/2000/svg">
<path d="M6.04989 28.4269C6.04989 28.9629 5.88279 29.3649 5.54861 29.6388C5.249 29.8835 4.82262 30 4.27525 30H3.82583C2.73109 30 2.14339 29.4931 2.06272 28.4735C2.05696 28.3977 2.09153 28.3628 2.1722 28.3628H2.9558C3.01918 28.3628 3.05375 28.3977 3.05951 28.4735C3.08832 28.7124 3.16323 28.8813 3.30151 28.9687C3.43403 29.0561 3.64722 29.1027 3.93531 29.1027H4.16002C4.5403 29.1027 4.79381 29.0328 4.91481 28.8988C5.00124 28.7998 5.04733 28.6425 5.04733 28.4269V28.3744C5.04733 28.1938 4.99548 28.0598 4.89753 27.9782C4.7362 27.8501 4.39049 27.7335 3.8604 27.6461C3.42251 27.5704 3.04223 27.4247 2.72533 27.2092C2.31048 26.9353 2.10306 26.5566 2.10306 26.0788V26.0264C2.10306 25.6069 2.24134 25.2632 2.51214 24.9893C2.82904 24.6689 3.30727 24.5057 3.92955 24.5057H4.15426C4.65553 24.5057 5.0531 24.6223 5.34695 24.867C5.64656 25.1058 5.83094 25.4554 5.90008 25.9157C5.9116 25.9915 5.87127 26.0322 5.79637 26.0322H5.007C4.95515 26.0322 4.92057 25.9915 4.89177 25.9215C4.79958 25.5836 4.51725 25.4146 4.03902 25.4146C3.69331 25.4146 3.43979 25.4787 3.28422 25.6011C3.15746 25.7001 3.09985 25.84 3.09985 26.0381V26.0905C3.09985 26.4168 3.47436 26.644 4.2234 26.7722C4.84567 26.8771 5.27781 27.0227 5.52556 27.2033C5.86551 27.4539 6.03836 27.8442 6.03836 28.3977V28.4502L6.04989 28.4269ZM13.304 24.663C13.304 24.5873 13.2694 24.5523 13.1945 24.5523H9.7432C9.66829 24.5523 9.62796 24.5873 9.62796 24.663V25.3389C9.62796 25.4146 9.66829 25.4496 9.7432 25.4496H10.9705V29.831C10.9705 29.9068 11.005 29.9476 11.0799 29.9476H11.8578C11.9327 29.9476 11.9673 29.9068 11.9673 29.831V25.4496H13.1888C13.2637 25.4496 13.2982 25.4088 13.2982 25.3389V24.663H13.304ZM20.7713 24.663C20.7713 24.5873 20.7309 24.5523 20.656 24.5523H19.8782C19.8033 24.5523 19.763 24.5873 19.763 24.663V28.2055C19.763 28.5259 19.6938 28.7532 19.5613 28.893C19.423 29.0328 19.1983 29.1027 18.8814 29.1027H18.7719C18.4435 29.1027 18.213 29.0328 18.0863 28.893C17.9538 28.7532 17.8904 28.5259 17.8904 28.2055V24.663C17.8904 24.5873 17.8558 24.5523 17.7809 24.5523H17.0031C16.9282 24.5523 16.8878 24.5873 16.8878 24.663V28.2055C16.8878 28.7823 17.0434 29.2251 17.3488 29.5339C17.6541 29.8427 18.092 30 18.6682 30H19.0082C19.5728 30 20.0107 29.8485 20.3161 29.5339C20.6215 29.2251 20.777 28.7823 20.777 28.2055V24.663H20.7713ZM28.348 26.3469C28.348 25.7701 28.1925 25.3214 27.8813 25.0126C27.576 24.7038 27.1323 24.5523 26.5561 24.5523H24.4588C24.3839 24.5523 24.3494 24.5873 24.3494 24.663V29.831C24.3494 29.9068 24.3839 29.9476 24.4588 29.9476H26.5561C27.1323 29.9476 27.5702 29.7902 27.8813 29.4815C28.1925 29.1727 28.348 28.724 28.348 28.1472V26.3469ZM27.3455 28.1472C27.3455 28.4793 27.2763 28.7124 27.1381 28.8464C26.9998 28.9804 26.7751 29.0445 26.4524 29.0445H25.3461V25.4496H26.4524C26.7693 25.4496 26.9998 25.5195 27.1381 25.6535C27.2763 25.7934 27.3455 26.0264 27.3455 26.3469V28.1472ZM32.9287 24.663C32.9287 24.5873 32.8941 24.5523 32.8134 24.5523H32.0356C31.9607 24.5523 31.9261 24.5873 31.9261 24.663V29.831C31.9261 29.9068 31.9664 29.9476 32.0356 29.9476H32.8134C32.8883 29.9476 32.9287 29.9068 32.9287 29.831V24.663ZM40.5054 26.2886C40.5054 25.7176 40.3499 25.2748 40.0387 24.9602C39.7333 24.6514 39.2897 24.4941 38.725 24.4941H38.2756C37.7052 24.4941 37.2731 24.6456 36.9677 24.9602C36.6623 25.2748 36.5067 25.7176 36.5067 26.2886V28.2055C36.5067 28.7823 36.6623 29.2251 36.9677 29.5339C37.2731 29.8427 37.711 30 38.2756 30H38.725C39.2897 30 39.7333 29.8485 40.0387 29.5339C40.3499 29.2251 40.5054 28.7823 40.5054 28.2055V26.2886ZM39.5086 28.2055C39.5086 28.5259 39.4395 28.7532 39.3012 28.893C39.1629 29.0328 38.9382 29.1027 38.6213 29.1027H38.3966C38.0797 29.1027 37.855 29.0328 37.7167 28.893C37.5842 28.7532 37.5151 28.5259 37.5151 28.2055V26.2944C37.5151 25.974 37.5842 25.7409 37.7167 25.6069C37.855 25.4671 38.0797 25.3972 38.3966 25.3972H38.6213C38.9382 25.3972 39.1629 25.4671 39.3012 25.6069C39.4337 25.7467 39.5086 25.974 39.5086 26.2944V28.2055ZM42.5739 20.3923H0V21.0973H42.5797V20.3923H42.5739ZM25.4153 3.09963H22.7879V14.6125H30.8602V12.3694H25.4153V3.09963ZM36.645 10.2253H38.7827V12.2412C38.3909 12.3927 37.6188 12.5442 36.887 12.5442C34.5189 12.5442 33.7296 11.3265 33.7296 8.85609C33.7296 6.38571 34.4786 5.11556 36.8467 5.11556C38.1604 5.11556 38.9094 5.53505 39.5317 6.33327L41.168 4.81258C40.1712 3.36764 38.4254 2.93649 36.7891 2.93649C33.1073 2.93649 31.1771 4.9699 31.1771 8.83861C31.1771 12.7073 32.9229 14.7873 36.7718 14.7873C38.5407 14.7873 40.2634 14.3329 41.2026 13.6628V8.07535H36.6393V10.2195L36.645 10.2253ZM18.8756 8.85609C18.8756 13.7502 14.9519 17.7122 10.1177 17.7122C5.28357 17.7122 1.37131 13.7502 1.37131 8.85609C1.37131 3.96193 5.28933 0 10.1235 0C14.9576 0 18.8814 3.96776 18.8814 8.85609H18.8756ZM10.4692 12.0431V4.9699H9.76625V12.7365H12.2092V12.0431H10.4692ZM17.4467 8.85026V8.51233H12.215V9.19984H16.7495V9.29889C16.5133 12.7947 13.6324 15.5681 10.1177 15.5681C8.34308 15.5681 6.67792 14.8689 5.42185 13.5988C4.16578 12.3286 3.47436 10.639 3.47436 8.84444C3.47436 7.04991 4.16578 5.36026 5.42185 4.09011C6.67216 2.81996 8.34308 2.1208 10.1177 2.1208C10.1926 2.1208 10.3828 2.1208 10.4692 2.12663V1.43329C10.377 1.43329 10.2041 1.43329 10.1177 1.43329C6.0787 1.43329 2.79447 4.76015 2.79447 8.84444C2.79447 10.8254 3.55503 12.6898 4.93786 14.0882C6.32069 15.4923 8.1587 16.2614 10.1177 16.2614C12.0767 16.2614 13.9205 15.4923 15.3033 14.0882C16.6862 12.6898 17.4467 10.8254 17.4467 8.84444V8.85026ZM7.32324 4.96407C6.7413 4.96407 6.2746 5.43601 6.2746 6.02447C6.2746 6.61293 6.7413 7.08487 7.32324 7.08487C7.90519 7.08487 8.37189 6.60711 8.37189 6.02447C8.37189 5.44183 7.90519 4.96407 7.32324 4.96407ZM50.3062 0.0757429H49.7301V29.9243H50.3062V0.0757429ZM63.6506 12.5908C65.7709 12.5908 67.292 11.3906 67.292 9.53777V9.50864C67.292 7.85978 66.1973 6.98 63.8177 6.45562C61.4726 5.94873 60.9195 5.37774 60.9195 4.35813V4.329C60.9195 3.35599 61.801 2.58691 63.1896 2.58691C64.2844 2.58691 65.2754 2.94232 66.2664 3.75801L66.9694 2.81996C65.8861 1.94018 64.7741 1.49738 63.2184 1.49738C61.1903 1.49738 59.7153 2.74422 59.7153 4.4397V4.46883C59.7153 6.24005 60.8446 7.04409 63.2991 7.58011C65.5404 8.05787 66.0705 8.62886 66.0705 9.631V9.66013C66.0705 10.7264 65.1256 11.4954 63.6909 11.4954C62.2562 11.4954 61.1442 10.9885 60.0322 9.96893L59.2831 10.8604C60.5622 12.014 61.9508 12.585 63.639 12.585L63.6506 12.5908ZM75.3989 12.4393H76.6031V2.77335H80.1985V1.64886H71.8035V2.77335H75.3989V12.4335V12.4393ZM83.2176 12.4393H84.4507L85.7183 9.59021H91.5261L92.7765 12.4393H94.0729L89.2099 1.57312H88.0806L83.2176 12.4393ZM86.1907 8.49485L88.628 2.99476L91.0537 8.49485H86.1907ZM100.883 12.4393H102.105V8.15692L106.541 1.65469H105.141L101.517 7.04991L97.9217 1.65469H96.4582L100.895 8.1744V12.4451L100.883 12.4393ZM64.8721 28.5084C66.808 28.5084 68.0238 27.751 69.1416 26.6149L68.3464 25.8283C67.3266 26.813 66.3644 27.384 64.9009 27.384C62.5558 27.384 60.7697 25.4263 60.7697 22.9326V22.9035C60.7697 20.4214 62.5385 18.4813 64.9009 18.4813C66.3471 18.4813 67.3554 19.0989 68.2542 19.9612L69.0782 19.0697C68.0122 18.0501 66.8541 17.3568 64.9182 17.3568C61.778 17.3568 59.5251 19.8854 59.5251 22.9326V22.9617C59.5251 26.0614 61.7953 28.5084 64.8721 28.5084ZM74.3502 28.322H75.5544V24.1328H78.6024L81.6965 28.322H83.1773L79.8988 23.9173C81.5755 23.6085 82.797 22.5597 82.797 20.771V20.7419C82.797 19.8971 82.4916 19.1396 81.9731 18.6153C81.3047 17.9394 80.2503 17.5374 78.9424 17.5374H74.356V28.322H74.3502ZM75.5544 23.0375V18.6619H78.8444C80.5672 18.6619 81.5698 19.4601 81.5698 20.7885V20.8176C81.5698 22.2043 80.4289 23.0375 78.8271 23.0375H75.5487H75.5544ZM88.4148 28.322H96.199V27.215H89.6132V23.4395H95.4326V22.3325H89.6132V18.6502H96.1183V17.5432H88.409V28.3278L88.4148 28.322ZM100.757 28.322H101.99L103.257 25.4729H109.065L110.315 28.322H111.612L106.749 17.4558H105.619L100.757 28.322ZM103.73 24.3775L106.167 18.8775L108.593 24.3775H103.73ZM118.221 28.322H119.425V18.6619H123.02V17.5374H114.625V18.6619H118.221V28.322ZM128.367 28.322H129.571V17.5374H128.367V28.322ZM139.412 28.3977H140.478L145.065 17.5316H143.768L139.96 26.8246L136.163 17.5316H134.82L139.407 28.3977H139.412ZM150.216 28.322H158V27.215H151.414V23.4395H157.234V22.3325H151.414V18.6502H157.919V17.5432H150.21V28.3278L150.216 28.322Z" fill="white"/>
</svg>
